<?xml version="1.0" encoding="utf-8"?>
<svg version="1.1" xmlns:xlink="http://www.w3.org/1999/xlink" width="77px" height="23px" xmlns="http://www.w3.org/2000/svg">
  <defs>
    <mask fill="white" id="clip5">
      <path d="M 0 16.9473684210526  L 0 6.05263157894737  C 0 2.66315789473685  2.20000000000005 0  5 0  L 72 0  C 74.8 0  77 2.66315789473685  77 6.05263157894737  L 77 16.9473684210526  C 77 20.3368421052632  74.8 23  72 23  L 5 23  C 2.20000000000005 23  0 20.3368421052632  0 16.9473684210526  Z " fill-rule="evenodd" />
    </mask>
  </defs>
  <g transform="matrix(1 0 0 1 -711 -61 )">
    <path d="M 0 16.9473684210526  L 0 6.05263157894737  C 0 2.66315789473685  2.20000000000005 0  5 0  L 72 0  C 74.8 0  77 2.66315789473685  77 6.05263157894737  L 77 16.9473684210526  C 77 20.3368421052632  74.8 23  72 23  L 5 23  C 2.20000000000005 23  0 20.3368421052632  0 16.9473684210526  Z " fill-rule="nonzero" fill="#ffffff" stroke="none" transform="matrix(1 0 0 1 711 61 )" />
    <path d="M 0 16.9473684210526  L 0 6.05263157894737  C 0 2.66315789473685  2.20000000000005 0  5 0  L 72 0  C 74.8 0  77 2.66315789473685  77 6.05263157894737  L 77 16.9473684210526  C 77 20.3368421052632  74.8 23  72 23  L 5 23  C 2.20000000000005 23  0 20.3368421052632  0 16.9473684210526  Z " stroke-width="2" stroke="#797979" fill="none" transform="matrix(1 0 0 1 711 61 )" mask="url(#clip5)" />
  </g>
</svg>