<?xml version="1.0" encoding="utf-8"?>
<svg version="1.1" xmlns:xlink="http://www.w3.org/1999/xlink" width="33px" height="28px" xmlns="http://www.w3.org/2000/svg">
  <g transform="matrix(1 0 0 1 -171 -194 )">
    <path d="M 4.36439732142857 22.9869791666667  C 4.59765625 22.7560763888889  4.71428571428571 22.4826388888889  4.71428571428571 22.1666666666667  C 4.71428571428571 21.8506944444444  4.59765625 21.5772569444444  4.36439732142857 21.3463541666667  C 4.13113839285714 21.1154513888889  3.85491071428571 21  3.53571428571429 21  C 3.21651785714286 21  2.94029017857143 21.1154513888889  2.70703125 21.3463541666667  C 2.47377232142857 21.5772569444444  2.35714285714286 21.8506944444444  2.35714285714286 22.1666666666667  C 2.35714285714286 22.4826388888889  2.47377232142857 22.7560763888889  2.70703125 22.9869791666667  C 2.94029017857143 23.2178819444444  3.21651785714286 23.3333333333333  3.53571428571429 23.3333333333333  C 3.85491071428571 23.3333333333333  4.13113839285714 23.2178819444444  4.36439732142857 22.9869791666667  Z M 29.9430803571429 13.3072916666667  C 30.4095982142857 12.8454861111111  30.6428571428571 12.2986111111111  30.6428571428571 11.6666666666667  C 30.6428571428571 11.046875  30.4034598214286 10.5030381944444  29.9246651785714 10.03515625  C 29.4458705357143 9.56727430555555  28.8995535714286 9.33333333333333  28.2857142857143 9.33333333333333  L 17.6785714285714 9.33333333333333  C 17.6785714285714 9.09027777777778  17.7706473214286 8.79557291666667  17.9547991071429 8.44921875  C 18.1389508928571 8.10286458333333  18.3415178571429 7.76866319444444  18.5625 7.44661458333333  C 18.7834821428571 7.12456597222222  18.9860491071429 6.71137152777778  19.1702008928571 6.20703125  C 19.3543526785714 5.70269097222222  19.4464285714286 5.18923611111111  19.4464285714286 4.66666666666667  C 19.4464285714286 3.85243055555555  19.1732700892857 3.25998263888889  18.626953125 2.88932291666667  C 18.0806361607143 2.51866319444444  17.3716517857143 2.33333333333333  16.5 2.33333333333333  C 16.2053571428571 2.33333333333333  15.6529017857143 3.17795138888889  14.8426339285714 4.8671875  C 14.5479910714286 5.40190972222222  14.3208705357143 5.796875  14.1612723214286 6.05208333333333  C 13.6702008928571 6.82986111111111  12.9827008928571 7.7109375  12.0987723214286 8.6953125  C 11.2271205357143 9.6796875  10.6071428571429 10.3237847222222  10.2388392857143 10.6276041666667  C 9.39174107142857 11.3203125  8.53236607142857 11.6666666666667  7.66071428571429 11.6666666666667  L 7 11.6666666666667  L 7 23.3333333333333  L 7.66071428571429 23.3333333333333  C 8.54464285714286 23.3333333333333  9.56975446428572 23.5277777777778  10.7360491071429 23.9166666666667  C 11.90234375 24.3055555555556  13.0901227678571 24.6944444444444  14.2993861607143 25.0833333333333  C 15.5086495535714 25.4722222222222  16.6104910714286 25.6666666666667  17.6049107142857 25.6666666666667  C 19.9252232142857 25.6666666666667  21.0853794642857 24.6519097222222  21.0853794642857 22.6223958333333  C 21.0853794642857 22.3064236111111  21.0546875 21.9661458333333  20.9933035714286 21.6015625  C 21.3616071428571 21.4071180555556  21.6531808035714 21.0881076388889  21.8680245535714 20.64453125  C 22.0828683035714 20.2009548611111  22.1902901785714 19.7543402777778  22.1902901785714 19.3046875  C 22.1902901785714 18.8550347222222  22.0797991071429 18.4357638888889  21.8588169642857 18.046875  C 22.5094866071429 17.4392361111111  22.8348214285714 16.7161458333333  22.8348214285714 15.8776041666667  C 22.8348214285714 15.5737847222222  22.7734375 15.2365451388889  22.6506696428571 14.8658854166667  C 22.5279017857143 14.4952256944444  22.3744419642857 14.2065972222222  22.1902901785714 14  L 28.2857142857143 14  C 28.9241071428571 14  29.4765625 13.7690972222222  29.9430803571429 13.3072916666667  Z M 31.6004464285714 8.38541666666667  C 32.5334821428571 9.30902777777778  33 10.3967013888889  33 11.6484375  C 33 12.9244791666667  32.5365513392857 14.0243055555556  31.6096540178571 14.9479166666667  C 30.6827566964286 15.8715277777778  29.5747767857143 16.3333333333333  28.2857142857143 16.3333333333333  L 25.1735491071429 16.3333333333333  C 25.1244419642857 17.0868055555556  24.8973214285714 17.8098958333333  24.4921875 18.5026041666667  C 24.5290178571429 18.7578125  24.5474330357143 19.0190972222222  24.5474330357143 19.2864583333333  C 24.5474330357143 20.5138888888889  24.1791294642857 21.5954861111111  23.4425223214286 22.53125  C 23.4547991071429 24.2204861111111  22.9330357142857 25.5542534722222  21.8772321428571 26.5325520833333  C 20.8214285714286 27.5108506944444  19.4280133928571 28  17.6969866071429 28  C 16.0641741071429 28  14.0876116071429 27.5807291666667  11.7672991071429 26.7421875  C 9.75390625 26.0251736111111  8.38504464285714 25.6666666666667  7.66071428571429 25.6666666666667  L 2.35714285714286 25.6666666666667  C 1.70647321428571 25.6666666666667  1.15094866071429 25.4388020833333  0.690569196428571 24.9830729166667  C 0.230189732142857 24.52734375  0 23.9774305555556  0 23.3333333333333  L 0 11.6666666666667  C 0 11.0225694444444  0.230189732142857 10.47265625  0.690569196428571 10.0169270833333  C 1.15094866071429 9.56119791666667  1.70647321428571 9.33333333333333  2.35714285714286 9.33333333333333  L 7.66071428571429 9.33333333333333  C 7.78348214285714 9.33333333333333  7.91545758928572 9.30598958333333  8.056640625 9.25130208333333  C 8.19782366071429 9.19661458333333  8.34207589285714 9.11154513888889  8.48939732142857 8.99609375  C 8.63671875 8.88064236111111  8.77483258928571 8.77126736111111  8.90373883928571 8.66796875  C 9.03264508928571 8.56467013888889  9.17996651785714 8.42795138888889  9.345703125 8.2578125  C 9.51143973214286 8.08767361111111  9.63727678571429 7.95703125  9.72321428571429 7.86588541666667  C 9.80915178571429 7.77473958333333  9.92578125 7.64409722222222  10.0731026785714 7.47395833333333  C 10.2204241071429 7.30381944444444  10.3063616071429 7.20052083333333  10.3309151785714 7.1640625  C 11.12890625 6.26475694444444  11.7427455357143 5.48090277777778  12.1724330357143 4.8125  C 12.33203125 4.55729166666667  12.5345982142857 4.18055555555555  12.7801339285714 3.68229166666667  C 13.0256696428571 3.18402777777778  13.2527901785714 2.74652777777778  13.4614955357143 2.36979166666667  C 13.6702008928571 1.99305555555555  13.9188058035714 1.61024305555555  14.2073102678571 1.22135416666667  C 14.4958147321429 0.832465277777775  14.8334263392857 0.531684027777775  15.2201450892857 0.319010416666666  C 15.6068638392857 0.106336805555553  16.0334821428571 0  16.5 0  C 18.0345982142857 0  19.3021763392857 0.407118055555553  20.302734375 1.22135416666667  C 21.3032924107143 2.03559027777778  21.8035714285714 3.18402777777778  21.8035714285714 4.66666666666667  C 21.8035714285714 5.49305555555555  21.6685267857143 6.27083333333333  21.3984375 7  L 28.2857142857143 7  C 29.5625 7  30.6674107142857 7.46180555555555  31.6004464285714 8.38541666666667  Z " fill-rule="nonzero" fill="#000000" stroke="none" transform="matrix(1 0 0 1 171 194 )" />
  </g>
</svg>