<?xml version="1.0" encoding="utf-8"?>
<svg version="1.1" xmlns:xlink="http://www.w3.org/1999/xlink" width="12px" height="12px" viewBox="414 383.5  12 12" xmlns="http://www.w3.org/2000/svg">
  <path d="M 420 383.5  C 423.36 383.5  426 386.14  426 389.5  C 426 392.86  423.36 395.5  420 395.5  C 416.64 395.5  414 392.86  414 389.5  C 414 386.14  416.64 383.5  420 383.5  Z " fill-rule="nonzero" fill="#ffffff" stroke="none" />
  <path d="M 420 384  C 423.08 384  425.5 386.42  425.5 389.5  C 425.5 392.58  423.08 395  420 395  C 416.92 395  414.5 392.58  414.5 389.5  C 414.5 386.42  416.92 384  420 384  Z " stroke-width="1" stroke="#797979" fill="none" />
  <path d="M 420 392.5  C 418.32 392.5  417 391.18  417 389.5  C 417 387.82  418.32 386.5  420 386.5  C 421.68 386.5  423 387.82  423 389.5  C 423 391.18  421.68 392.5  420 392.5  " fill-rule="nonzero" fill="#797979" stroke="none" />
</svg>