<?xml version="1.0" encoding="utf-8"?>
<svg version="1.1" xmlns:xlink="http://www.w3.org/1999/xlink" width="12px" height="12px" viewBox="485 383.5  12 12" xmlns="http://www.w3.org/2000/svg">
  <path d="M 491 383.5  C 494.36 383.5  497 386.14  497 389.5  C 497 392.86  494.36 395.5  491 395.5  C 487.64 395.5  485 392.86  485 389.5  C 485 386.14  487.64 383.5  491 383.5  Z " fill-rule="nonzero" fill="#ffffff" stroke="none" />
  <path d="M 491 384  C 494.08 384  496.5 386.42  496.5 389.5  C 496.5 392.58  494.08 395  491 395  C 487.92 395  485.5 392.58  485.5 389.5  C 485.5 386.42  487.92 384  491 384  Z " stroke-width="1" stroke="#797979" fill="none" />
  <path d="M 491 392.5  C 489.32 392.5  488 391.18  488 389.5  C 488 387.82  489.32 386.5  491 386.5  C 492.68 386.5  494 387.82  494 389.5  C 494 391.18  492.68 392.5  491 392.5  " fill-rule="nonzero" fill="#797979" stroke="none" />
</svg>